# xmcd
#
# Track frame offsets:
#	150
#	15182
#	31367
#	47474
#	62307
#	75676
#	92333
#	107201
#	121908
#	136780
#	152784
#	171232
#	186148
#	205181
#	221201
#	236650
#	253156
#	269158
#	284776
#	301261
#	321194
#
# Disc length: 4518 seconds
#
# Revision: 1
# Processed by: cddbd v1.5.2PL0 Copyright (c) Steve Scherf et al.
# Submitted via: audiograbber 1.83.01
#
DISCID=2711a415
DTITLE=mai - Mein Herz Schlägt Schlager, Vol.2-2
DYEAR=2017
DGENRE=Schlager
TTITLE0=Vanessa Mai - Ich Sterb Für Dich (Mania Mix)
TTITLE1=Michelle - Herzstillstand
TTITLE2=Dj Ötzi - Wie Ein Komet
TTITLE3=Andreas Gabalier - Zuckerpuppen
TTITLE4=Voxxclub - Geiles Himmelblau
TTITLE5=Hannah - Scheissegal
TTITLE6=Bernhard Brink - Giganten
TTITLE7=Dartagnan - Seit An Seit
TTITLE8=Michael Wendler - Tanzen Ist Träumen
TTITLE9=Julia Lindholm - Mamma Mia
TTITLE10=Räuber - Wenn Ich Träum In Der Nacht (Fosco Dance Edit)
TTITLE11=Wolkenfrei - In All Deinen Farben (Rico Bernasconi Radio Edit)
TTITLE12=Julia Kollat - Blumen Von Paris (Remix Florian Paetzold)
TTITLE13=Rockstroh Feat. Michael Frieda - Sommersprossen
TTITLE14=Pixie Paris - Es Rappelt Im Karton
TTITLE15=Sarah and Pietro - Teil Von Mir (Bigh Remix)
TTITLE16=Lindt Bennett - Regenbogenkind
TTITLE17=Achim Petry - Rettungsboot (Franz Rapid Mix)
TTITLE18=Roland Kaiser and Maite Kelly - Warum Hast Du Nicht Nein Gesagt (Club Mi
TTITLE18=x)
TTITLE19=Nik P. - Geboren Um Dich Zu Lieben (Club Mix)
TTITLE20=Wolfgang Petry - Der Letzte Seiner Art
EXTD=
EXTT0=
EXTT1=
EXTT2=
EXTT3=
EXTT4=
EXTT5=
EXTT6=
EXTT7=
EXTT8=
EXTT9=
EXTT10=
EXTT11=
EXTT12=
EXTT13=
EXTT14=
EXTT15=
EXTT16=
EXTT17=
EXTT18=
EXTT19=
EXTT20=
PLAYORDER=
